<svg width="512" height="512" viewBox="0 0 512 512" fill="none" xmlns="http://www.w3.org/2000/svg" xmlns:xlink="http://www.w3.org/1999/xlink" class=""><rect id="_r_o_" width="512" height="512" x="0" y="0" rx="12" fill="url(#_r_p_)" stroke="#FFFFFF" stroke-width="0" stroke-opacity="100%" paint-order="stroke"></rect><clipPath id="clip"><use xlink:href="#_r_o_"></use></clipPath><defs><linearGradient id="_r_p_" gradientUnits="userSpaceOnUse" gradientTransform="rotate(45)" style="transform-origin: center center;"><stop stop-color="#C9D6FF"></stop><stop offset="1" stop-color="#596AA1"></stop></linearGradient><radialGradient id="_r_q_" cx="0" cy="0" r="1" gradientUnits="userSpaceOnUse" gradientTransform="translate(256) rotate(90) scale(512)"><stop stop-color="white"></stop><stop offset="1" stop-color="white" stop-opacity="0"></stop></radialGradient></defs><svg xmlns="http://www.w3.org/2000/svg" width="352" height="352" viewBox="0 0 14 14" x="80" y="80" alignment-baseline="middle" style="color: rgb(255, 255, 255); width: 352px; height: 352px;"><path fill="none" stroke="currentColor" stroke-linecap="round" stroke-linejoin="round" d="M9.933 13.092a56 56 0 0 0 2.016-.234a.99.99 0 0 0 .854-.861c.08-.643.159-1.312.223-1.997M4.068.908a56 56 0 0 0-2.016.234a.99.99 0 0 0-.855.86A66 66 0 0 0 .974 4M9.933.908c.69.066 1.365.148 2.016.234a.99.99 0 0 1 .854.86c.08.644.159 1.313.223 1.998m-8.958 9.092a59 59 0 0 1-2.016-.234a.99.99 0 0 1-.855-.861A66 66 0 0 1 .974 10M7 5.162V3.877m0 1.285c.787 0 1.604 0 2.329.094a1.406 1.406 0 0 1 1.216 1.184c.059.403.059.812.059 1.508c0 .697 0 1.106-.06 1.508A1.406 1.406 0 0 1 9.33 10.64c-.725.095-1.542.095-2.329.095c-.786 0-1.603 0-2.328-.095a1.406 1.406 0 0 1-1.216-1.184c-.059-.402-.059-.811-.059-1.508s0-1.105.059-1.508a1.406 1.406 0 0 1 1.216-1.184c.725-.094 1.542-.094 2.328-.094m1.296 2.98v-.388M5.7 8.142v-.388M7 3.864c.616 0 .963-.347.963-.963S7.616 1.94 7 1.94s-.962.347-.962.962s.347.963.962.963" stroke-width="1"></path></svg></svg>